<?xml version="1.0" encoding="utf-8"?>
<!-- Generator: Adobe Illustrator 16.0.0, SVG Export Plug-In . SVG Version: 6.00 Build 0)  -->
<!DOCTYPE svg PUBLIC "-//W3C//DTD SVG 1.1//EN" "http://www.w3.org/Graphics/SVG/1.1/DTD/svg11.dtd">
<svg version="1.1" xmlns="http://www.w3.org/2000/svg" xmlns:xlink="http://www.w3.org/1999/xlink" xmlns:inkscape="http://www.inkscape.org/namespaces/inkscape" x="0px" y="0px" width="1000px"
	 height="1000px" viewBox="0 0 1000 1000" enable-background="new 0 0 1000 1000" xml:space="preserve">
<g id="Layer_1">
</g>
<g id="Layer_2">
	<g>
		<defs>
			<path id="path4486" inkscape:connector-curvature="0" d="M500.005,975c-85.04,0-153.989-56.819-153.989-126.866H653.98
				C653.98,918.181,585.037,975,500.005,975z M754.336,806.108H245.64v-92.242h508.696V806.108L754.336,806.108z M752.51,666.391
				H247.092c-1.685-1.938-3.401-3.843-5.024-5.802c-52.071-63.238-64.335-96.231-76.247-129.889
				c-0.2-1.099,63.143,12.946,108.061,23.06c0,0,23.113,5.354,56.905,11.509c-32.448-38.039-51.708-86.391-51.708-135.8
				c0-108.487,83.204-203.292,53.186-279.916c29.217,2.378,60.468,61.659,62.576,154.352
				c31.062-42.923,44.059-121.307,44.059-169.363c0-49.76,32.79-107.563,65.586-109.542c-29.234,48.184,7.579,89.493,40.297,191.963
				c12.275,38.487,10.708,103.264,20.167,144.34c3.15-85.314,17.814-209.801,71.943-252.78
				c-23.875,54.125,3.528,121.848,22.275,154.409c30.256,52.528,48.592,92.328,48.592,167.597
				c0,50.467-18.633,97.991-50.068,135.131c35.742-6.718,60.424-12.759,60.424-12.759l116.064-22.646
				C834.18,530.254,817.316,599.608,752.51,666.391z"/>
		</defs>
		<clipPath id="path4486_1_">
			<use xlink:href="#path4486"  overflow="visible"/>
		</clipPath>
		<g clip-path="url(#path4486_1_)">
			<path fill="#03A9F4" d="M450.83,543.701L329.164,964.964c-105.689-71.577-220.691-130.597-464.548-28.954l118.877-416.654
				l1.429-0.662C227.835,418.024,345.49,471.707,450.83,543.701z"/>
			<path fill="#FFC107" d="M514.521,584.479l-120.234,416.585c105.622,72.169,222.647,129.688,466.189,28.078l115.945-406.12
				C728.242,708.654,620.109,656.021,514.521,584.479z"/>
			<path fill="#FF5722" d="M471.063,467.87L591.088,50.553C485.469-21.339,368.336-79.101,124.586,22.75L4.492,441.813
				c96.794-40.216,173.324-58.668,237.4-58.11C339.106,384.33,407.438,424.793,471.063,467.87z"/>
			<path fill="#7CB342" d="M654.398,94.432L534.406,514.155c105.27,71.961,232.623,130.877,465.979,25.747l119.922-418.124
				C876.867,223.004,759.809,166.184,654.398,94.432z"/>
		</g>
	</g>
</g>
</svg>
